<?xml version="1.0" encoding="utf-8"?>
<svg viewBox="0 0 50 50" xmlns="http://www.w3.org/2000/svg">
  <defs>
    <pattern id="pattern-0" x="0" y="0" width="20" height="20" patternUnits="userSpaceOnUse" viewBox="0 0 100 100">
      <path d="M 0 0 L 50 0 L 50 100 L 0 100 Z" style="fill: black;"/>
    </pattern>
  </defs>
  <path style="fill: none; stroke-linecap: round; stroke-linejoin: round; stroke: rgb(0, 0, 0); stroke-width: 4;" d="M 25.214 29.175 C 25.732 24.874 29.64 21.892 35.418 22.504 C 40.053 23.05 43.613 27.594 43.426 32.139 C 42.727 40.13 37.328 42.509 32.761 42.605 C 26.645 42.626 22.706 41.263 19.207 35.429 C 18.105 33.593 15.116 24.977 13.45 23.696 C 12.097 22.581 10.202 21.774 6.915 22.616 C 3.884 23.916 3.439 26.181 3.842 27.502 C 4.174 29.663 6.805 31.286 8.898 31.333 C 14.291 31.757 17.64 28.109 19.094 23.232 C 21.235 16.051 23.955 14.439 26.087 13.571 C 30.672 11.784 37.016 13.074 45.158 12.765"/>
</svg>